<?xml version="1.0" encoding="UTF-8"?>
<svg id="Layer_2" data-name="Layer 2" xmlns="http://www.w3.org/2000/svg" viewBox="0 0 512 223.96">
  <g id="Layer_1-2" data-name="Layer 1">
    <g>
      <path d="m0,49.6c4.52,6.39,12.22,10.05,21.17,10.05,12.54,0,21.69-7.43,21.77-17.67.07-8.06-4.53-13.82-13.67-17.11l-4.71-1.47c-6.31-2.27-9.87-3.72-9.87-7.05,0-3.12,3.96-4.76,7.88-4.76,4.11,0,8.33,1.83,10.85,4.68l8.09-8.55C36.62,2.6,30.24,0,22.52,0,10.31,0,2.1,7.1,2.1,17.66c0,7.6,5.01,13.32,14.49,16.54l4.23,1.39c6.59,2.23,9.4,4.41,9.4,7.29s-3.7,5.17-8.43,5.17-9.54-2.65-12.27-6.5L0,49.6Z"/>
      <polygon points="61.37 58.66 73.87 58.66 73.87 12.83 88.9 12.83 88.9 .99 46.5 .99 46.5 12.83 61.37 12.83 61.37 58.66"/>
      <polygon points="216.97 58.66 229.47 58.66 229.47 12.83 244.5 12.83 244.5 .99 202.1 .99 202.1 12.83 216.97 12.83 216.97 58.66"/>
      <polygon points="67.99 140.81 105.53 140.81 105.53 128.98 80.4 128.98 80.4 117.9 100.6 117.9 100.6 106.06 80.4 106.06 80.4 94.98 105.53 94.98 105.53 83.15 67.99 83.15 67.99 140.81"/>
      <polygon points="259.25 140.81 271.66 140.81 271.66 83.15 259.25 83.15 259.25 105.98 235.11 105.98 235.11 83.15 222.7 83.15 222.7 140.81 235.11 140.81 235.11 117.73 259.25 117.73 259.25 140.81"/>
      <rect x="285.45" y="83.15" width="12.41" height="57.67"/>
      <polygon points="406.51 140.81 418.92 140.81 418.92 83.15 406.51 83.15 406.51 105.98 382.37 105.98 382.37 83.15 369.96 83.15 369.96 140.81 382.37 140.81 382.37 117.73 406.51 117.73 406.51 140.81"/>
      <polygon points="440.37 140.81 452.86 140.81 452.86 94.98 467.89 94.98 467.89 83.15 425.5 83.15 425.5 94.98 440.37 94.98 440.37 140.81"/>
      <polygon points="474.46 140.81 512 140.81 512 128.98 486.87 128.98 486.87 117.9 507.07 117.9 507.07 106.06 486.87 106.06 486.87 94.98 512 94.98 512 83.15 474.46 83.15 474.46 140.81"/>
      <polygon points="164.35 222.97 201.89 222.97 201.89 211.14 176.76 211.14 176.76 200.05 196.96 200.05 196.96 188.21 176.76 188.21 176.76 177.14 201.89 177.14 201.89 165.3 164.35 165.3 164.35 222.97"/>
      <polygon points="214.13 222.97 250.69 222.97 250.69 211.14 226.54 211.14 226.54 165.3 214.13 165.3 214.13 222.97"/>
      <path d="m190.31,82.16c-16.45,0-29.82,13.38-29.82,29.82s13.38,29.82,29.82,29.82c9.29,0,17.83-3.83,23.47-10.53l-9.3-8.36c-3.55,4.57-8.32,6.89-14.17,6.89-9.56,0-17.33-8-17.33-17.82s7.78-17.82,17.33-17.82c5.98,0,10.82,2.41,14.38,7.15l9.3-8.36c-5.64-6.86-14.26-10.79-23.68-10.79"/>
      <path d="m336.98,82.16c-16.45,0-29.82,13.38-29.82,29.82s13.38,29.82,29.82,29.82c9.29,0,17.83-3.83,23.48-10.53l-9.31-8.36c-3.55,4.57-8.32,6.89-14.17,6.89-9.56,0-17.32-8-17.32-17.82s7.77-17.82,17.32-17.82c5.98,0,10.82,2.41,14.38,7.15l9.3-8.36c-5.65-6.86-14.26-10.79-23.69-10.79"/>
      <path d="m31.27,82.16c-17.33,0-30.4,12.82-30.4,29.82s13.49,29.82,31.38,29.82c10.02,0,18.82-3.14,23.58-8.42v-26.01h-23.5v11.59h11.42v7.88l-.12.09c-2.31,1.85-6.41,2.87-11.54,2.87-11.2,0-18.72-7.16-18.72-17.82s7.7-17.82,17.9-17.82c5.46,0,10.15,1.8,13.92,5.35l9.09-8.17c-5.87-6.09-13.61-9.17-23.02-9.17"/>
      <path d="m112.64,131.82c4.52,6.39,12.22,10.05,21.17,10.05,12.54,0,21.69-7.43,21.77-17.67.07-8.06-4.53-13.82-13.67-17.11l-4.71-1.47c-6.31-2.27-9.87-3.72-9.87-7.05,0-3.12,3.96-4.76,7.88-4.76,4.11,0,8.33,1.83,10.85,4.68l8.09-8.55c-4.88-5.12-11.26-7.73-18.98-7.73-12.21,0-20.42,7.1-20.42,17.66,0,7.6,5.01,13.32,14.49,16.54l4.23,1.39c6.59,2.23,9.4,4.41,9.4,7.29s-3.7,5.17-8.43,5.17-9.54-2.65-12.27-6.5l-9.52,8.04Z"/>
      <path d="m111.33,213.91c4.52,6.39,12.22,10.05,21.17,10.05,12.54,0,21.69-7.43,21.77-17.67.07-8.06-4.53-13.82-13.67-17.11l-4.71-1.47c-6.31-2.27-9.87-3.72-9.87-7.05,0-3.12,3.96-4.76,7.88-4.76,4.11,0,8.33,1.83,10.85,4.68l8.09-8.55c-4.88-5.12-11.26-7.73-18.98-7.73-12.21,0-20.42,7.1-20.42,17.66,0,7.6,5.01,13.32,14.49,16.54l4.23,1.39c6.59,2.23,9.4,4.41,9.4,7.29s-3.7,5.17-8.43,5.17-9.54-2.65-12.27-6.5l-9.52,8.04Z"/>
      <path d="m120.24.99h-11.77l-24.69,57.67h12.93l5.17-12.32h24.95l.08.2,5.1,12.12h12.93L120.24.99Zm-14.2,34.88l8.32-19.5,8.31,19.5h-16.63Z"/>
      <path d="m39.29,192.61l-.4-.21.32-.31c2.64-2.55,4.09-6.03,4.09-9.79,0-9.38-7.62-17.01-17.01-17.01H4.57v57.67h25.42c9.77,0,17.42-7.39,17.42-16.84,0-5.84-3.03-10.88-8.12-13.51m-22.16-16.27h7.69c3.71,0,6.62,2.83,6.62,6.46s-2.9,6.29-6.62,6.29h-7.69v-12.75Zm11.8,35.5h-11.8v-12.75h11.72c3.75,0,6.69,2.8,6.69,6.38s-2.9,6.37-6.62,6.37"/>
      <path d="m85.61,165.3h-11.77l-24.7,57.67h12.94l5.17-12.32h24.95l.08.2,5.1,12.12h12.93l-24.7-57.67Zm-14.2,34.88l8.32-19.5,8.31,19.5h-16.63Z"/>
      <path d="m169.57.99h-19.55v57.67h19.55c16.21,0,29.41-12.94,29.41-28.84S185.79.99,169.57.99m0,46.33h-7.14V12.33h7.14c9.6,0,16.83,7.52,16.83,17.49s-7.24,17.5-16.83,17.5"/>
    </g>
  </g>
</svg>